<?xml version="1.0" encoding="utf-8"?>
<!-- Generator: Adobe Illustrator 23.0.0, SVG Export Plug-In . SVG Version: 6.00 Build 0)  -->
<svg version="1.1" id="Layer_1" xmlns="http://www.w3.org/2000/svg" xmlns:xlink="http://www.w3.org/1999/xlink" x="0px" y="0px"
	 viewBox="0 0 512 512" style="enable-background:new 0 0 512 512;" xml:space="preserve">
<style type="text/css">
	.st0{fill:#06A5F4;}
	.st1{fill:#0E7BBC;}
	.st2{fill:#01121C;}
</style>
<path class="st0" d="M488.8,99.6h-57.9V53.3c0-6.4-5.2-11.6-11.6-11.6H23.2c-6.4,0-11.6,5.2-11.6,11.6V424
	c0,25.5,20.9,46.3,46.3,46.3h396.2c25.5,0,46.3-20.9,46.3-46.3V111.2C500.4,104.8,495.2,99.6,488.8,99.6z"/>
<rect x="81.1" y="169.1" class="st1" width="111.2" height="117"/>
<g>
	<path class="st2" d="M198.1,389.2h-117c-6.4,0-11.6,5.2-11.6,11.6c0,6.4,5.2,11.6,11.6,11.6h117c6.4,0,11.6-5.2,11.6-11.6
		C209.7,394.4,204.5,389.2,198.1,389.2z"/>
	<path class="st2" d="M373,389.2H256c-6.4,0-11.6,5.2-11.6,11.6c0,6.4,5.2,11.6,11.6,11.6h117c6.4,0,11.6-5.2,11.6-11.6
		C384.6,394.4,379.4,389.2,373,389.2z"/>
	<path class="st2" d="M373,99.6H81.1c-6.4,0-11.6,5.2-11.6,11.6s5.2,11.6,11.6,11.6H373c6.4,0,11.6-5.2,11.6-11.6
		C384.6,104.8,379.4,99.6,373,99.6z"/>
	<path class="st2" d="M373,157.5H256c-6.4,0-11.6,5.2-11.6,11.6s5.2,11.6,11.6,11.6h117c6.4,0,11.6-5.2,11.6-11.6
		S379.4,157.5,373,157.5z"/>
	<path class="st2" d="M373,215.5H256c-6.4,0-11.6,5.2-11.6,11.6s5.2,11.6,11.6,11.6h117c6.4,0,11.6-5.2,11.6-11.6
		C384.6,220.6,379.4,215.5,373,215.5z"/>
	<path class="st2" d="M373,273.4H256c-6.4,0-11.6,5.2-11.6,11.6s5.2,11.6,11.6,11.6h117c6.4,0,11.6-5.2,11.6-11.6
		S379.4,273.4,373,273.4z"/>
	<path class="st2" d="M373,331.3H256c-6.4,0-11.6,5.2-11.6,11.6s5.2,11.6,11.6,11.6h117c6.4,0,11.6-5.2,11.6-11.6
		S379.4,331.3,373,331.3z"/>
	<path class="st2" d="M198.1,331.3h-117c-6.4,0-11.6,5.2-11.6,11.6s5.2,11.6,11.6,11.6h117c6.4,0,11.6-5.2,11.6-11.6
		S204.5,331.3,198.1,331.3z"/>
	<path class="st2" d="M198.1,157.5h-117c-6.4,0-11.6,5.2-11.6,11.6v117c0,6.4,5.2,11.6,11.6,11.6h117c6.4,0,11.6-5.2,11.6-11.6v-117
		C209.7,162.7,204.5,157.5,198.1,157.5z M186.5,274.5H92.7v-93.8h93.8V274.5z"/>
	<path class="st2" d="M488.8,88h-34.8V53.3c0-12.8-10.4-23.2-23.2-23.2H23.2C10.4,30.1,0,40.5,0,53.3V424c0,31.9,26,57.9,57.9,57.9
		h396.2c31.9,0,57.9-26,57.9-57.9V111.2C512,98.4,501.6,88,488.8,88z M488.8,424c0,19.2-15.6,34.8-34.8,34.8H57.9
		c-19.2,0-34.8-15.6-34.8-34.8V53.3h407.7v353.3c0,16,13,29,29,29c6.4,0,11.6-5.2,11.6-11.6c0-6.4-5.2-11.6-11.6-11.6
		c-3.2,0-5.8-2.6-5.8-5.8V111.2h34.8L488.8,424L488.8,424z"/>
</g>
</svg>
