<?xml version="1.0" encoding="UTF-8" standalone="no"?>
<!-- Generator: Adobe Illustrator 19.0.0, SVG Export Plug-In . SVG Version: 6.00 Build 0)  -->

<svg
   xmlns:dc="http://purl.org/dc/elements/1.1/"
   xmlns:cc="http://creativecommons.org/ns#"
   xmlns:rdf="http://www.w3.org/1999/02/22-rdf-syntax-ns#"
   xmlns:svg="http://www.w3.org/2000/svg"
   xmlns="http://www.w3.org/2000/svg"
   xmlns:sodipodi="http://sodipodi.sourceforge.net/DTD/sodipodi-0.dtd"
   xmlns:inkscape="http://www.inkscape.org/namespaces/inkscape"
   version="1.1"
   id="Layer_1"
   x="0px"
   y="0px"
   viewBox="0 0 512 512"
   style="enable-background:new 0 0 512 512;"
   xml:space="preserve"
   sodipodi:docname="uncheck1.svg"
   inkscape:version="0.92.4 (5da689c313, 2019-01-14)"><metadata
   id="metadata49"><rdf:RDF><cc:Work
       rdf:about=""><dc:format>image/svg+xml</dc:format><dc:type
         rdf:resource="http://purl.org/dc/dcmitype/StillImage" /><dc:title></dc:title></cc:Work></rdf:RDF></metadata><defs
   id="defs47" /><sodipodi:namedview
   pagecolor="#ffffff"
   bordercolor="#666666"
   borderopacity="1"
   objecttolerance="10"
   gridtolerance="10"
   guidetolerance="10"
   inkscape:pageopacity="0"
   inkscape:pageshadow="2"
   inkscape:window-width="1920"
   inkscape:window-height="1025"
   id="namedview45"
   showgrid="false"
   inkscape:zoom="0.4609375"
   inkscape:cx="256"
   inkscape:cy="256"
   inkscape:window-x="-8"
   inkscape:window-y="-8"
   inkscape:window-maximized="1"
   inkscape:current-layer="Layer_1" />
<g
   id="g6">
	<g
   id="g4">
		<path
   d="M493.297,159.693c-12.477-30.878-31.231-59.828-56.199-84.792c-24.965-24.969-53.917-43.723-84.795-56.2    C321.421,6.22,288.611,0,255.816,0c-32.747,0-65.495,6.249-96.311,18.744c-30.813,12.491-59.693,31.244-84.603,56.158    c-24.915,24.911-43.668,53.792-56.158,84.607C6.249,190.324,0,223.072,0,255.822c0,32.794,6.222,65.602,18.701,96.485    c12.477,30.877,31.231,59.828,56.2,84.792c24.964,24.967,53.914,43.722,84.792,56.199c30.882,12.48,63.69,18.701,96.484,18.703    c32.748,0,65.497-6.249,96.315-18.743c30.814-12.49,59.695-31.242,84.607-56.158c24.915-24.912,43.668-53.793,56.158-84.608    c12.494-30.817,18.743-63.565,18.744-96.315C512,223.383,505.778,190.575,493.297,159.693z M461.611,339.66    c-10.821,26.683-27.018,51.648-48.659,73.292c-21.643,21.64-46.608,37.837-73.291,48.659    c-26.679,10.818-55.078,16.241-83.484,16.241c-28.477,0-56.947-5.406-83.688-16.214c-26.744-10.813-51.76-27.008-73.441-48.685    C77.37,391.27,61.174,366.255,50.363,339.51c-10.808-26.741-16.214-55.212-16.213-83.689c-0.001-28.405,5.423-56.802,16.24-83.482    c10.821-26.683,27.018-51.648,48.659-73.291c21.643-21.64,46.607-37.837,73.289-48.659c26.678-10.818,55.075-16.242,83.48-16.242    c28.478,0,56.95,5.405,83.691,16.213c26.745,10.811,51.762,27.007,73.445,48.686c21.678,21.682,37.873,46.697,48.685,73.441    c10.808,26.741,16.214,55.211,16.214,83.688C477.852,284.582,472.429,312.98,461.611,339.66z"
   id="path2"
   style="fill:#ffffff;fill-opacity:1" />
	</g>
</g>
<g
   id="g12"
   style="fill:#ffffff;fill-opacity:1">
	<g
   id="g10"
   style="fill:#ffffff;fill-opacity:1">
		<path
   d="M279.627,256.001l82.693-82.693c6.525-6.525,6.525-17.102,0-23.627c-6.524-6.524-17.102-6.524-23.627,0L256,232.375    l-82.693-82.693c-6.525-6.524-17.102-6.524-23.627,0c-6.524,6.524-6.524,17.102,0,23.627l82.693,82.693l-82.693,82.693    c-6.524,6.523-6.524,17.102,0,23.627c6.525,6.524,17.102,6.524,23.627,0L256,279.628l82.693,82.693    c6.525,6.524,17.102,6.524,23.627,0c6.525-6.524,6.525-17.102,0-23.627L279.627,256.001z"
   id="path8"
   style="fill:#ffffff;fill-opacity:1" />
	</g>
</g>
<g
   id="g14">
</g>
<g
   id="g16">
</g>
<g
   id="g18">
</g>
<g
   id="g20">
</g>
<g
   id="g22">
</g>
<g
   id="g24">
</g>
<g
   id="g26">
</g>
<g
   id="g28">
</g>
<g
   id="g30">
</g>
<g
   id="g32">
</g>
<g
   id="g34">
</g>
<g
   id="g36">
</g>
<g
   id="g38">
</g>
<g
   id="g40">
</g>
<g
   id="g42">
</g>
</svg>