<?xml version="1.0" encoding="utf-8"?>
<!-- Generator: Adobe Illustrator 23.0.0, SVG Export Plug-In . SVG Version: 6.00 Build 0)  -->
<svg version="1.1" id="Capa_1" xmlns="http://www.w3.org/2000/svg" xmlns:xlink="http://www.w3.org/1999/xlink" x="0px" y="0px"
	 viewBox="0 0 512 512" style="enable-background:new 0 0 512 512;" xml:space="preserve">
<style type="text/css">
	.st0{fill:#D75E72;}
	.st1{fill:#46B29D;}
	.st2{fill:#FDD7AD;}
	.st3{fill:#0E7BBC;}
	.st4{fill:#527F72;}
	.st5{fill:#802D40;}
	.st6{fill:#106D91;}
	.st7{fill:#FAC176;}
	.st8{fill:#4482C3;}
	.st9{fill:#285680;}
</style>
<g transform="translate(0 -1)">
	<path class="st0" d="M450.3,290l-8.9,55.3c0,0-111.4,88.8-150.1,88.3h-70.6c-45.8-1.7-154.5-110.3-154.5-110.3l-3.9-30.9
		c-8.7-136.2,84.4-183.4,88.2-185.4h0.1c16.8-9.9,51-8.1,61.2-0.2l0.1,0.2c16.5,9,31.1,21,43.1,35.4h2.6
		c12.1-14.3,26.6-26.3,43-35.4c20.2-4.4,41.1-4.4,61.3-0.2l0.1,0.2C361.9,106.9,458,152.8,450.3,290z"/>
	<path class="st1" d="M203,195.2c-0.1,13.9,5.4,27.2,15.2,37.1c-9.3,6.9-41.7,36.1-41.7,104.2l-0.7,0.9c-4.6-3.9-9.9-6.8-15.5-8.7
		c-16.6-6.7-31.9-16-45.6-27.6c-2.7-2.2-5.4-4.3-7.9-6.4c-12.5-10.6-31.2-4.9-42.7,6.6l2,22.1l-3.9-30.9
		c-8.7-136.2,84.4-183.4,88.2-185.4h0.1c9.1,5.8,19.6,8.9,30.4,8.8c10.9,0,21.6-3.1,30.8-9l0.1,0.2c16.5,9,31.1,21,43.1,35.4
		C226.1,142.9,203,166.4,203,195.2z"/>
	<g>
		<path class="st2" d="M238.3,58.4c0,31.7-25.7,57.3-57.4,57.4c-10.8,0-21.4-3-30.5-8.8c-23.4-14.7-33-43.9-22.9-69.5
			c10.1-25.7,37-40.5,64.1-35.4S238.4,30.8,238.3,58.4z"/>
		<path class="st2" d="M388.4,58.4c0,31.7-25.7,57.3-57.4,57.4c-10.8,0-21.4-3-30.5-8.8c-23.4-14.7-33-43.9-22.9-69.5
			s37-40.5,64.1-35.4S388.4,30.8,388.4,58.4z"/>
	</g>
	<path class="st3" d="M336.2,337.3c-3.6,2.9-6.9,6.2-9.8,9.8c-11.5,15-17.7,33.4-17.4,52.3v25.2h-8.8c-4.9,0-8.8,4-8.8,8.8h-70.6
		c0-4.9-4-8.8-8.8-8.8H203v-25.2c0.3-18.9-5.9-37.4-17.4-52.3c-2.9-3.6-6.2-6.9-9.8-9.8l0.7-0.9c0-68.1,32.4-97.3,41.7-104.2
		c9.9,10.2,23.6,15.9,37.8,15.9c14.2,0,27.8-5.7,37.8-15.9c9.3,6.9,41.7,36.1,41.7,104.2L336.2,337.3z"/>
	<path class="st2" d="M309,195.2c0,29.1-23.4,52.8-52.6,53s-53-23.1-53.4-52.2c-0.4-29.1,22.8-53.1,51.9-53.7
		c0.3-0.1,0.7-0.1,1.1-0.1c0.5,0,1.1,0,1.6,0.1C286.2,143.2,309,166.6,309,195.2z"/>
	<path class="st4" d="M114.8,318.8c-4.3,0-8-3.1-8.7-7.4c-9.1-54.9,17.1-117.1,18.3-119.7c1.9-4.5,7.1-6.5,11.6-4.6
		c4.5,1.9,6.5,7.1,4.7,11.6c-0.3,0.6-25.3,60.1-17.1,109.8c0.4,2.6-0.3,5.2-2,7.2C119.8,317.7,117.3,318.8,114.8,318.8z"/>
	<path class="st5" d="M397.3,318.8c-2.6,0-5.1-1.1-6.7-3.1c-1.7-2-2.4-4.6-2-7.2c8.3-49.8-16.8-109.2-17.1-109.8
		c-1.2-2.9-0.8-6.2,1-8.8c1.9-2.5,5-3.9,8.1-3.5s5.8,2.4,7.1,5.3c1.1,2.6,27.4,64.8,18.3,119.7C405.2,315.7,401.6,318.8,397.3,318.8
		z"/>
	<g>
		<path class="st6" d="M194.2,398.2c-4.9,0-8.8-4-8.8-8.8c0-2.4,0.3-59.6,28.5-93.9c2-2.4,5.2-3.6,8.3-3.1c3.1,0.5,5.7,2.7,6.8,5.6
			s0.6,6.3-1.5,8.7c-24.2,29.4-24.5,82.1-24.5,82.7C203,394.3,199.1,398.2,194.2,398.2z"/>
		<path class="st6" d="M317.8,398.2c-4.9,0-8.8-3.9-8.8-8.8c0-0.5-0.4-53.3-24.5-82.7c-3.1-3.8-2.5-9.3,1.2-12.4
			c3.8-3.1,9.3-2.6,12.4,1.2c28.2,34.3,28.5,91.5,28.5,93.9C326.6,394.3,322.7,398.2,317.8,398.2L317.8,398.2L317.8,398.2z"/>
	</g>
	<g>
		<path class="st2" d="M203,399.5v25.2l2.5,11.2l-88.2,2.1l0.3-13.2l-63.8-63.8c-7.3-7.2-13.2-15.7-17.4-25.1L1.8,259.7
			c-1.2-2.5-1.8-5.3-1.8-8c0-10.7,8.7-19.3,19.3-19.3c7.7,0,14.7,4.6,17.7,11.7l19.8,46.1c0.5,1.2,1.1,2.6,1.8,3.8
			c0.4,1,0.9,1.9,1.4,2.7c0,0.2,0.1,0.3,0.2,0.4c0.2,0.4,0.4,0.8,0.6,1.1l3.4-1.8v-0.1c3.2-3.2,7-5.7,11.3-7.2
			c10.7-4.1,22.7-2.1,31.4,5.3c2.5,2.1,5.1,4.2,7.9,6.4c13.6,11.6,29,20.9,45.6,27.6c5.7,1.9,11,4.9,15.5,8.7
			c3.6,2.9,6.9,6.2,9.8,9.8C197.2,362.1,203.3,380.6,203,399.5z"/>
		<path class="st2" d="M512,251.7c0,2.8-0.6,5.5-1.8,8l-34.6,76.1c-4.2,9.4-10.1,17.9-17.4,25.1l-63.8,63.8l-0.3,16l-85.9-2.8
			l0.7-13.2v-25.2c-0.3-18.9,5.9-37.4,17.4-52.3c2.9-3.6,6.2-6.9,9.8-9.8c4.6-3.9,9.9-6.8,15.5-8.7c16.6-6.7,31.9-16,45.5-27.6
			c2.7-2.2,5.4-4.3,7.9-6.4c12.6-10.5,31.1-9.7,42.7,1.9v0.1l3.4,1.8c0.8-1.5,1.6-3,2.3-4.5c0.6-1.1,1.1-2.4,1.7-3.6l19.8-46.1
			c3-7.1,10-11.8,17.7-11.7C503.3,232.4,512,241,512,251.7z"/>
	</g>
	<g>
		<path class="st7" d="M121,351.5c-3.5,3.4-9.1,3.4-12.5,0l-32.8-32.8c-6-5.9-11-12.6-14.9-20c-0.3-0.5-0.5-1-0.6-1.6
			c0.2,0.4,0.4,0.8,0.6,1.1l3.4-1.8v-0.1c3.2-3.2,7-5.7,11.3-7.2c0.3,0.4,0.6,0.8,0.9,1.2c3.2,5.8,7.1,11.1,11.8,15.8L121,339
			C124.5,342.5,124.5,348.1,121,351.5z"/>
		<path class="st7" d="M391,351.5c3.5,3.4,9.1,3.4,12.5,0l32.8-32.8c6-5.9,11-12.6,14.9-20c0.3-0.5,0.5-1,0.6-1.6
			c-0.2,0.4-0.4,0.8-0.6,1.1l-3.4-1.8v-0.1c-3.2-3.2-7-5.7-11.3-7.2c-0.3,0.4-0.6,0.8-0.9,1.2c-3.2,5.8-7.1,11.1-11.8,15.8L391,339
			C387.6,342.5,387.6,348.1,391,351.5z"/>
	</g>
	<path class="st8" d="M114.8,424.7h97.1c4.9,0,8.8,4,8.8,8.8v70.6c0,4.9-4,8.8-8.8,8.8h-97.1c-4.9,0-8.8-4-8.8-8.8v-70.6
		C105.9,428.7,109.9,424.7,114.8,424.7z"/>
	<path class="st9" d="M194.2,477.7h-8.8c-4.9,0-8.8-4-8.8-8.8s4-8.8,8.8-8.8h8.8c4.9,0,8.8,4,8.8,8.8S199.1,477.7,194.2,477.7z"/>
	<path class="st8" d="M300.1,424.7h97.1c4.9,0,8.8,4,8.8,8.8v70.6c0,4.9-4,8.8-8.8,8.8h-97.1c-4.9,0-8.8-4-8.8-8.8v-70.6
		C291.3,428.7,295.3,424.7,300.1,424.7z"/>
	<path class="st9" d="M326.6,477.7h-8.8c-4.9,0-8.8-4-8.8-8.8s4-8.8,8.8-8.8h8.8c4.9,0,8.8,4,8.8,8.8S331.5,477.7,326.6,477.7z"/>
</g>
</svg>
