<?xml version="1.0" encoding="utf-8"?>
<!-- Generator: Adobe Illustrator 23.0.0, SVG Export Plug-In . SVG Version: 6.00 Build 0)  -->
<svg version="1.1" id="Layer_1" xmlns="http://www.w3.org/2000/svg" xmlns:xlink="http://www.w3.org/1999/xlink" x="0px" y="0px"
	 viewBox="0 0 511 511" style="enable-background:new 0 0 511 511;" xml:space="preserve">
<style type="text/css">
	.st0{fill:#DCA98B;}
	.st1{fill:#0E7BBC;}
	.st2{fill:#FFC15A;}
	.st3{fill:#F2D1A5;}
	.st4{fill:#FFCB7C;}
	.st5{fill:#CBE558;}
</style>
<path class="st0" d="M500,481.1L435.9,417c-16.2-16.2-42.6-16.2-58.8,0l-63.8,63.8L500,481.1z"/>
<path class="st1" d="M130.1,359.7v78.5H30.4c-11.9,0-21.5,9.6-21.5,21.5c0,11.9,9.6,21.5,21.5,21.5h106.8c24.3,0,44-19.7,44-44
	v-72.7L130.1,359.7z"/>
<path class="st2" d="M179.9,29.9h-47.2c-10.2,0-18.5,8.3-18.5,18.5v26h84.2v-26C198.4,38.2,190.1,29.9,179.9,29.9z"/>
<path class="st3" d="M157.5,146.5c-21.1,0-38.2-17.1-38.2-38.2V74.4h76.4v33.8C195.7,129.3,178.6,146.5,157.5,146.5z"/>
<path class="st1" d="M98.4,266.6v-66c0-25.9,21-46.9,46.9-46.9c15,0,29.1,7.2,38,19.3l32.9,45.2h69.2c12.1,0,22,9.8,22,22
	c0,12.1-9.8,22-22,22h-93.8l-22.4-25.1l9.3,11.9v58.3h58.1c24.3,0,44,19.7,44,44v108.3c0,11.9-9.6,21.5-21.5,21.5
	c-11.8,0-21.5-9.6-21.5-21.5v-97.1h-86.2c-29.3,0-53.1-23.8-53.1-53.1c0-2.2,0-60.3,0-60.3"/>
<path class="st4" d="M178.6,309.4V249l-9.3-11.9l22.4,25.1h93.8c12.1,0,22-9.8,22-22s-9.8-22-22-22h-69.2l-32.9-45.2
	c-8.8-12.1-22.9-19.3-38-19.3c-25.9,0-46.9,21-46.9,46.9v66v42.7H178.6z"/>
<g>
	<path class="st5" d="M382.1,88c0,18.6,9.7,34.8,24.3,44.1c14.6-9.2,24.3-25.5,24.3-44.1c0-18.6-9.7-34.8-24.3-44.1
		C391.8,53.1,382.1,69.4,382.1,88z"/>
	<path class="st5" d="M425.6,194.3c-16.5,16.5-22.4,39.6-17.6,60.8c21.2,4.8,44.3-1.1,60.8-17.6c16.5-16.5,22.3-39.6,17.6-60.8
		C465.2,172,442.1,177.8,425.6,194.3z"/>
	<path class="st5" d="M389.7,157.7c14.4,14.4,19.6,34.7,15.4,53.2c-18.6,4.2-38.8-0.9-53.2-15.4c-14.4-14.4-19.6-34.7-15.4-53.2
		C355,138.1,375.2,143.2,389.7,157.7z"/>
	<path class="st5" d="M385.3,264.9c18.2,18.2,24.6,43.6,19.3,66.9c-23.3,5.3-48.8-1.2-66.9-19.3c-18.2-18.2-24.6-43.6-19.3-66.9
		C341.7,240.3,367.2,246.8,385.3,264.9z"/>
</g>
<path d="M507.1,474L443,409.9c-7.5-7.5-16.8-12.2-26.6-14.1V266.5c2.1,0.2,4.2,0.3,6.3,0.3c19.8,0,38.9-7.8,53.2-22.1
	c18.4-18.4,26-44.6,20.2-70.1c-0.8-3.8-3.8-6.7-7.5-7.5c-25.5-5.7-51.7,1.8-70.1,20.2c-0.7,0.7-1.4,1.5-2.1,2.2v-52.2
	c15.3-11.7,24.3-29.8,24.3-49.3c0-21.4-10.8-41.1-29-52.5c-3.3-2.1-7.4-2.1-10.7,0c-18.1,11.5-29,31.1-29,52.5
	c0,19.5,9,37.6,24.3,49.3v13.1c-16.4-16.3-39.7-22.9-62.2-17.8c-3.8,0.8-6.7,3.8-7.5,7.5c-5.1,22.7,1.6,46.1,18.1,62.5
	c12.8,12.8,29.8,19.7,47.5,19.7c1.4,0,2.8-0.1,4.2-0.1v40.1c-1.3-1.5-2.7-3-4.1-4.4c-19.8-19.8-47.9-28.1-75.3-22.2
	c-2.2-15.5-15.6-27.4-31.6-27.4h-64.1l-29.9-41.1c-4.2-5.8-9.5-10.7-15.4-14.5c17.4-7.3,29.7-24.5,29.7-44.5V84.4H221
	c5.5,0,10-4.5,10-10c0-5.5-4.5-10-10-10h-12.6v-16c0-15.7-12.8-28.5-28.5-28.5h-47.2c-15.7,0-28.5,12.8-28.5,28.5v16H91.6
	c-5.5,0-10,4.5-10,10c0,5.5,4.5,10,10,10h17.6v23.9c0,15.5,7.4,29.4,18.9,38.2c-23,7.3-39.7,28.9-39.7,54.2v108.7
	c0,23.4,12.8,43.8,31.7,54.7v64.1H30.4C13.1,428.2-1,442.3-1,459.6S13.1,491,30.4,491h12.8c5.5,0,10-4.5,10-10c0-5.5-4.5-10-10-10
	H30.4c-6.3,0-11.5-5.2-11.5-11.5c0-6.3,5.2-11.5,11.5-11.5h99.7c5.5,0,10-4.5,10-10v-66.7c3.7,0.7,7.6,1.1,11.5,1.1h19.8V437
	c0,18.8-15.3,34.1-34.1,34.1h-14.1c-5.5,0-10,4.5-10,10c0,5.5,4.5,10,10,10h14.1c29.8,0,54-24.2,54-54v-64.6h36.5v87.1
	c0,17.3,14.1,31.4,31.4,31.4c17.3,0,31.4-14.1,31.4-31.4V351.3c0-29.8-24.2-54-54-54h-48.1v-25.6c1,0.3,2,0.5,3,0.5h93.8
	c8.1,0,15.6-3.1,21.2-8.1c0.6,20.7,9,40.5,24,55.5c15.6,15.6,36.4,24.1,57.9,24.1c2.6,0,5.3-0.1,7.9-0.4v52.6
	c-9.7,1.9-18.9,6.6-26.4,14.1l-63.8,63.8c-3.9,3.9-3.9,10.2,0,14.1c3.9,3.9,10.2,3.9,14.1,0l63.8-63.8c12.3-12.3,32.4-12.3,44.7,0
	l64.1,64.1c1.9,1.9,4.5,2.9,7.1,2.9c2.6,0,5.1-1,7.1-2.9C511,484.2,511,477.9,507.1,474z M396.3,202.2c-13.8,1.2-27.5-3.7-37.5-13.7
	c-10-10-14.9-23.6-13.7-37.5c13.8-1.2,27.5,3.7,37.5,13.7C392.6,174.7,397.5,188.3,396.3,202.2z M432.7,201.4
	c12-12,28.5-17.7,45.1-16c1.8,16.6-4,33.1-16,45.1c-12,12-28.5,17.7-45.1,16c-0.2-1.7-0.3-3.4-0.3-5.1v-1.9
	C416.7,225.3,422.4,211.7,432.7,201.4z M406.4,56.3c9.1,7.9,14.3,19.4,14.3,31.7c0,12.3-5.3,23.7-14.3,31.7
	c-9.1-7.9-14.3-19.4-14.3-31.7S397.4,64.3,406.4,56.3z M185.7,108.2c0,15.6-12.7,28.2-28.2,28.2c-15.6,0-28.2-12.7-28.2-28.2V84.4
	h56.5V108.2z M124.2,48.4c0-4.7,3.8-8.5,8.5-8.5h47.2c4.7,0,8.5,3.8,8.5,8.5v16h-64.2V48.4z M236.7,317.3
	c18.8,0,34.1,15.3,34.1,34.1v108.3c0,6.3-5.1,11.5-11.5,11.5c-6.3,0-11.5-5.2-11.5-11.5v-97.1c0-5.5-4.5-10-10-10h-86.2
	c-21.1,0-38.7-15.2-42.4-35.3H236.7z M285.4,252.2h-89.3l-19.4-21.8c-3.7-4.1-10-4.5-14.1-0.8c-4.1,3.7-4.5,10-0.8,14.1l6.8,7.7
	v45.9h-60.2v-96.6c0-20.4,16.6-37,37-37c11.8,0,23,5.7,29.9,15.2l32.9,45.2c1.9,2.6,4.9,4.1,8.1,4.1h69.2c6.6,0,12,5.4,12,12
	C297.4,246.9,292,252.2,285.4,252.2z M396,323.2c-18.9,2.2-37.6-4.2-51.3-17.8c-13.6-13.6-20-32.4-17.8-51.3
	c18.9-2.3,37.6,4.2,51.3,17.8c11.7,11.7,18.1,27.2,18.2,43.3v1.4C396.4,318.9,396.3,321.1,396,323.2z"/>
<path d="M83.2,471.1c-2.6,0-5.2,1.1-7.1,2.9c-1.9,1.9-2.9,4.4-2.9,7.1s1.1,5.2,2.9,7.1c1.9,1.9,4.4,2.9,7.1,2.9
	c2.6,0,5.2-1.1,7.1-2.9c1.9-1.9,2.9-4.4,2.9-7.1s-1.1-5.2-2.9-7.1C88.4,472.1,85.8,471.1,83.2,471.1z"/>
</svg>
