<?xml version="1.0" encoding="utf-8"?>
<!-- Generator: Adobe Illustrator 23.0.0, SVG Export Plug-In . SVG Version: 6.00 Build 0)  -->
<svg version="1.1" id="Layer_1" xmlns="http://www.w3.org/2000/svg" xmlns:xlink="http://www.w3.org/1999/xlink" x="0px" y="0px"
	 viewBox="0 0 500 428" style="enable-background:new 0 0 500 428;" xml:space="preserve">
<style type="text/css">
	.st0{opacity:0.2;}
	.st1{fill:#D9EEFF;}
	.st2{fill:#ABD5FD;}
	.st3{fill:#C1E4FF;}
	.st4{fill:#1BBC9D;}
	.st5{fill:#FFFFFF;}
	.st6{fill:#27DEBF;}
	.st7{fill:#037BBC;}
	.st8{fill:#0E6A8E;}
	.st9{fill:#189ED3;}
	.st10{opacity:0.3;}
	.st11{fill:#2343BA;}
	.st12{fill:#0F6996;}
	.st13{fill:#0E7BBC;}
	.st14{fill:#0D4E68;}
	.st15{fill:#2460DA;}
	.st16{fill:#002176;}
	.st17{fill:#FFC000;}
	.st18{fill:#FFDB4C;}
	.st19{opacity:0.5;}
	.st20{fill:#F28F8F;}
	.st21{fill:#FFA8A7;}
</style>
<g id="Objects">
	<g id="XMLID_18000_">
		<g id="XMLID_17781_" class="st0">
			<path id="XMLID_17999_" class="st1" d="M101.4,390.7c83.8,43.8,219.6,43.8,303.4,0c83.8-43.8,83.8-114.7,0-158.5
				s-219.6-43.8-303.4,0S17.6,347,101.4,390.7z"/>
		</g>
		<g id="XMLID_17680_">
			<g id="XMLID_17724_">
				<g id="XMLID_17737_">
					<g id="XMLID_17741_">
						<path id="XMLID_17998_" class="st1" d="M156.4,203.4c-15.9,9.2-28.9,31.6-28.9,50c0,18.4,12.9,25.9,28.9,16.7
							c15.9-9.2,28.9-31.6,28.9-50C185.3,201.6,172.4,194.2,156.4,203.4z M153.9,255.8c-2.4,1.4-4.6,2.1-6.5,2.1
							c-5.6,0-6.2-6.6-6.2-9.4c0-11.1,8.1-25.1,17.7-30.7c2.4-1.4,4.6-2.1,6.5-2.1c5.6,0,6.2,6.6,6.2,9.4
							C171.7,236.1,163.6,250.2,153.9,255.8z"/>
					</g>
				</g>
				<g id="XMLID_17732_">
					<g id="XMLID_17734_">
						<g id="XMLID_17950_">
							<path id="XMLID_18033_" class="st2" d="M166.3,215.7c-0.3,0-0.5-0.1-0.8-0.1c-1.2,0-2.6,0.3-4.1,0.9c0.1,1,0.2,2,0.2,2.7
								c0,11.1-8.1,25.1-17.7,30.7c-0.8,0.5-1.6,0.9-2.5,1.2c0.2,1.6,0.7,3.3,1.7,4.7c0.9,1.2,2.3,2.1,4.3,2.1
								c1.9,0,4.2-0.7,6.5-2.1c9.6-5.6,17.7-19.6,17.7-30.7C171.7,222.4,171.1,216.3,166.3,215.7z"/>
						</g>
					</g>
				</g>
				<g id="XMLID_17727_">
					<g id="XMLID_17729_">
						<path id="XMLID_17997_" class="st3" d="M176.8,201.3l-14.3-8.3c0,0,0,0,0,0c-5.2-3.1-12.5-2.6-20.5,2
							c-15.9,9.2-28.9,31.6-28.9,50c0,9.1,3.2,15.5,8.3,18.6c0.1,0,0.1,0.1,0.1,0.1l0.1,0l14.1,8.1c0,0,0,0,0.1,0
							c-2.4-1.4-4.3-3.6-5.7-6.3c-1-2-1.8-4.4-2.2-7.1c-0.2-1.6-0.4-3.3-0.4-5.1c0-18.4,12.9-40.8,28.9-50c1.6-0.9,3.1-1.6,4.6-2.2
							c2.6-1,5-1.6,7.3-1.7C171.5,199.3,174.4,199.9,176.8,201.3L176.8,201.3z"/>
					</g>
				</g>
			</g>
			<g id="XMLID_17706_">
				<g id="XMLID_17720_">
					<g id="XMLID_17721_">
						<g id="XMLID_17949_">
							<polygon id="XMLID_18025_" class="st3" points="153.6,131.7 140.1,123.9 119.8,135.6 72.8,302.9 86.2,310.6 106.2,299.1 
															"/>
						</g>
					</g>
				</g>
				<g id="XMLID_17717_">
					<g id="XMLID_17948_">
						<polygon id="XMLID_18021_" class="st1" points="106.2,299.1 86.2,310.6 133.4,143.4 153.6,131.7 						"/>
					</g>
				</g>
				<g id="XMLID_17712_">
					<g id="XMLID_17947_">
						<polygon id="XMLID_18018_" class="st2" points="86.2,310.6 133.4,143.4 119.8,135.6 72.8,302.9 						"/>
					</g>
				</g>
			</g>
			<g id="XMLID_17681_">
				<g id="XMLID_17694_">
					<g id="XMLID_17698_">
						<path id="XMLID_17996_" class="st1" d="M78,176.4c-16,9.2-28.9,31.6-28.9,50c0,18.4,12.9,25.9,28.9,16.7
							c15.9-9.2,28.9-31.6,28.9-50S94,167.2,78,176.4z M75.5,228.8c-2.4,1.4-4.6,2.1-6.5,2.1c-5.6,0-6.2-6.6-6.2-9.4
							c0-11.1,8.1-25.1,17.7-30.7c2.4-1.4,4.6-2.1,6.5-2.1c5.6,0,6.2,6.6,6.2,9.4C93.3,209.2,85.1,223.3,75.5,228.8z"/>
					</g>
				</g>
				<g id="XMLID_17689_">
					<g id="XMLID_17691_">
						<g id="XMLID_17946_">
							<path id="XMLID_18009_" class="st2" d="M87.8,188.7c-0.3,0-0.5-0.1-0.8-0.1c-1.2,0-2.6,0.3-4.1,0.9c0.2,1,0.2,2,0.2,2.7
								c0,11.1-8.1,25.1-17.7,30.7c-0.8,0.5-1.7,0.9-2.5,1.2c0.2,1.6,0.7,3.3,1.7,4.7c0.9,1.2,2.3,2.1,4.3,2.1
								c1.9,0,4.2-0.7,6.5-2.1c9.6-5.6,17.7-19.6,17.7-30.7C93.3,195.4,92.7,189.3,87.8,188.7z"/>
						</g>
					</g>
				</g>
				<g id="XMLID_17684_">
					<g id="XMLID_17686_">
						<path id="XMLID_17992_" class="st3" d="M98.4,174.4l-14.3-8.3c0,0,0,0,0,0c-5.2-3.1-12.5-2.6-20.5,2
							c-16,9.2-28.9,31.6-28.9,50c0,9.1,3.2,15.5,8.3,18.6c0,0,0.1,0.1,0.1,0.1l0.1,0.1l14.1,8.1c0,0,0,0,0.1,0
							c-2.4-1.4-4.3-3.6-5.7-6.3c-1-2-1.8-4.4-2.2-7.1c-0.2-1.6-0.4-3.3-0.4-5.1c0-18.4,12.9-40.8,28.9-50c1.6-0.9,3.1-1.6,4.6-2.2
							c2.6-1,5-1.6,7.3-1.7C93.1,172.4,96,173,98.4,174.4L98.4,174.4z"/>
					</g>
				</g>
			</g>
		</g>
		<g id="XMLID_805_">
			<g id="XMLID_804_">
				<path id="XMLID_18319_" class="st4" d="M167,306c0,0,1.5-8.3-1.1-18.6c-1.6-6.6-5-11.2-8.9-13.6c-3.9-2.4-11.1,0.1-5.4,7.9
					c5.7,7.7,11.6,17.6,12.2,25L167,306z"/>
			</g>
			<g id="XMLID_806_">
				<path id="XMLID_17995_" class="st5" d="M165.9,306.7C165.9,306.7,165.9,306.7,165.9,306.7c-0.3,0-0.5-0.2-0.5-0.5
					c0.3-13.7-6.1-27.4-12-30.6c-0.2-0.1-0.3-0.4-0.2-0.7c0.1-0.3,0.4-0.3,0.7-0.2c6.2,3.3,12.9,17.5,12.6,31.5
					C166.4,306.5,166.2,306.7,165.9,306.7z"/>
			</g>
		</g>
		<g id="XMLID_801_">
			<g id="XMLID_800_">
				<path id="XMLID_18314_" class="st6" d="M167.5,330.2c-6.3,3.6-13.5,0.3-14.7-6.7c-0.4-2.5-0.9-5-3.1-6.4
					c-1.9-1.2-4.4-1.3-6.1-2.9c-2.3-2.3-1-5.2,0.5-7.5c1.4-2.1,2.5-4.5,1.2-6.9c-0.7-1.3-1.5-2.5-1.9-4s-0.2-3.1,0.9-4.1
					c1.2-1.1,3.1-1.1,4.7-0.7c2.7,0.6,4.9,2.1,7,3.9c1.4,1.2,2.2,2.4,4.2,2.8c1.5,0.3,3.1,0,4.6,0.4c1.9,0.4,3.4,1.9,4.3,3.6
					c1.5,2.9,1,6.2,0.8,9.3c-0.2,3-0.5,5.9-0.9,8.8c-0.3,2.5-0.6,5-1,7.4C167.9,327.5,167.8,330,167.5,330.2z"/>
			</g>
			<g id="XMLID_802_">
				<path id="XMLID_17994_" class="st5" d="M168.1,326.7c-0.3,0-0.5-0.2-0.5-0.4c-2.2-15.7-15.4-30.3-20.3-32.8
					c-0.3-0.1-0.3-0.4-0.2-0.7c0.1-0.3,0.4-0.3,0.7-0.2c5.2,2.7,18.6,17.3,20.9,33.6C168.6,326.4,168.4,326.7,168.1,326.7
					C168.1,326.7,168.1,326.7,168.1,326.7z"/>
			</g>
			<g id="XMLID_803_">
				<path id="XMLID_17993_" class="st5" d="M148.6,309.7c-0.2,0-0.4-0.1-0.5-0.3c-0.1-0.3,0-0.5,0.3-0.7c0.2-0.1,5.8-2.5,12.5-1.8
					c0.3,0,0.5,0.3,0.4,0.5c0,0.3-0.3,0.5-0.6,0.5c-6.4-0.6-11.9,1.7-12,1.7C148.7,309.7,148.6,309.7,148.6,309.7z"/>
			</g>
		</g>
		<g id="XMLID_17645_">
			<g id="XMLID_17847_">
				<g id="XMLID_17945_">
					<path id="XMLID_18307_" class="st7" d="M168.9,333.9c-1.6-1-3-3.4-3-5.4V177.4c0-2,1.4-4.5,3.2-5.5L347.7,68.8
						c1.8-1,4.5-1.1,6.2-0.1c1.6,0.9,3,3.3,3,5.4v151.2c0,2-1.4,4.5-3.2,5.5L175.1,333.8C173.3,334.8,170.5,334.8,168.9,333.9z"/>
				</g>
			</g>
			<g id="XMLID_17335_">
				<g id="XMLID_17944_">
					<path id="XMLID_18304_" class="st8" d="M183.8,184l-17-9.8c-0.6,1-0.9,2.1-0.9,3.1v151.1c0,2,1.3,4.4,3,5.4
						c1.6,1,4.4,0.9,6.2-0.1l8.8-5L183.8,184L183.8,184z"/>
				</g>
			</g>
			<g id="XMLID_17789_">
				<g id="XMLID_17943_">
					<path id="XMLID_18301_" class="st9" d="M175.1,175.3L353.6,72.2c1.8-1,3.2-0.2,3.2,1.8v151.2c0,2-1.4,4.5-3.2,5.5L175,333.8
						c-1.8,1-3.2,0.2-3.2-1.8V180.8C171.9,178.8,173.3,176.3,175.1,175.3z"/>
				</g>
			</g>
			<g id="XMLID_17330_" class="st10">
				<g id="XMLID_17658_">
					<path id="XMLID_18298_" class="st1" d="M189.8,297.7c0,0,0-13.3,2.3-32.6c1.4-11.8,4.2-31.6,15.6-38.1
						c11.3-6.5,15.6,5.3,17.2,11.1c2.1,7.6,13.2,2.8,14.8-9.7s2.5-52.1,15.8-59.8c13.3-7.7,17.6,10.8,19.1,15.9
						c3,10.1,11.7,7.3,14.5,0.6c2.9-6.7,10.6-8.3,13.5,1.1c2.9,9.4,4.8,20.3,14.3,14.7c8.3-4.9,4.5-13.8,12.6-18
						c2.4-1.2,7.1-0.5,8.1,6.4c1.6,10.3,1.3,22.2,1.3,22.2L189.8,297.7z"/>
				</g>
			</g>
			<g id="XMLID_17341_">
				<g id="XMLID_17942_">
					<path id="XMLID_18295_" class="st1" d="M189.8,298.5L189.8,298.5c-0.4,0-0.7-0.3-0.7-0.7c0-0.1,0-13.6,2.3-32.7
						c1.1-9.5,3.8-31.6,15.9-38.7c3.6-2.1,6.9-2.6,9.7-1.4c3.8,1.5,6.6,5.8,8.6,12.9c0.6,2.1,2,3.2,3.9,3.1
						c3.9-0.3,8.5-5.1,9.4-12.6c0.3-2,0.5-4.7,0.8-7.9c1.5-17.1,4-45.8,15.4-52.4c3.5-2,6.7-2.5,9.6-1.3c6.3,2.6,9,12.1,10.3,16.7
						c0.1,0.4,0.2,0.7,0.3,1c1.1,3.8,3.2,6,5.8,6.1c2.9,0.2,6-2.2,7.4-5.6c1.6-3.8,4.7-6.1,7.8-5.9c3.1,0.2,5.7,2.8,7.1,7.1
						c0.3,1,0.6,2.1,0.9,3.1c1.7,5.7,3.2,11,6.5,12.3c1.5,0.6,3.5,0.3,5.8-1.1c3.9-2.3,5-5.5,6.1-8.8c1.1-3.4,2.3-6.9,6.6-9.2
						c1.2-0.6,3.2-0.9,5.1,0.1c1.5,0.8,3.5,2.6,4.1,6.9c1.5,10.2,1.3,22.2,1.3,22.3c0,0.4-0.3,0.8-0.8,0.7c-0.4,0-0.7-0.4-0.7-0.8
						c0-0.1,0.3-12-1.3-22.1c-0.6-3.7-2.1-5.2-3.3-5.8c-1.4-0.7-2.9-0.5-3.8-0.1c-3.8,2-4.8,5.1-5.9,8.3c-1.1,3.5-2.3,7.1-6.7,9.6
						c-2.8,1.6-5.1,2-7.1,1.2c-3.9-1.5-5.5-7.2-7.3-13.3c-0.3-1-0.6-2.1-0.9-3.1c-1.2-3.7-3.3-5.9-5.7-6.1c-2.5-0.1-5.1,1.9-6.4,5.1
						c-1.7,4-5.3,6.7-8.8,6.5c-1.9-0.1-5.3-1.2-7.1-7.2c-0.1-0.3-0.2-0.6-0.3-1c-1.2-4.4-3.8-13.4-9.4-15.7c-2.4-1-5.2-0.6-8.3,1.2
						c-10.8,6.2-13.3,35.5-14.7,51.3c-0.3,3.2-0.5,5.9-0.8,8c-1,8.3-6.3,13.6-10.7,13.9c-2.6,0.2-4.7-1.4-5.4-4.1
						c-1.9-6.7-4.4-10.6-7.7-12c-2.4-1-5.2-0.5-8.4,1.3c-11.6,6.7-14.1,28.3-15.2,37.6c-2.3,19-2.3,32.4-2.3,32.5
						C190.5,298.1,190.2,298.5,189.8,298.5z"/>
				</g>
			</g>
			<g id="XMLID_17785_">
				<g id="XMLID_17676_">
					<g id="XMLID_17941_">
						<path id="XMLID_18292_" class="st1" d="M210.9,226.9c-0.3,0-0.5-0.2-0.5-0.5v-0.9c0-0.3,0.2-0.5,0.5-0.5
							c0.3,0,0.5,0.2,0.5,0.5v0.9C211.4,226.6,211.2,226.9,210.9,226.9z"/>
					</g>
				</g>
				<g id="XMLID_17675_">
					<g id="XMLID_17925_">
						<path id="XMLID_18274_" class="st1" d="M210.9,282.3c-0.3,0-0.5-0.2-0.5-0.5V280c0-0.3,0.2-0.5,0.5-0.5c0.3,0,0.5,0.2,0.5,0.5
							v1.9C211.4,282.1,211.2,282.3,210.9,282.3z M210.9,278.6c-0.3,0-0.5-0.2-0.5-0.5v-1.9c0-0.3,0.2-0.5,0.5-0.5
							c0.3,0,0.5,0.2,0.5,0.5v1.9C211.4,278.4,211.2,278.6,210.9,278.6z M210.9,274.9c-0.3,0-0.5-0.2-0.5-0.5v-1.9
							c0-0.3,0.2-0.5,0.5-0.5c0.3,0,0.5,0.2,0.5,0.5v1.9C211.4,274.7,211.2,274.9,210.9,274.9z M210.9,271.2c-0.3,0-0.5-0.2-0.5-0.5
							v-1.9c0-0.3,0.2-0.5,0.5-0.5c0.3,0,0.5,0.2,0.5,0.5v1.9C211.4,271,211.2,271.2,210.9,271.2z M210.9,267.5
							c-0.3,0-0.5-0.2-0.5-0.5v-1.9c0-0.3,0.2-0.5,0.5-0.5c0.3,0,0.5,0.2,0.5,0.5v1.9C211.4,267.3,211.2,267.5,210.9,267.5z
							 M210.9,263.8c-0.3,0-0.5-0.2-0.5-0.5v-1.9c0-0.3,0.2-0.5,0.5-0.5c0.3,0,0.5,0.2,0.5,0.5v1.9
							C211.4,263.6,211.2,263.8,210.9,263.8z M210.9,260.1c-0.3,0-0.5-0.2-0.5-0.5v-1.9c0-0.3,0.2-0.5,0.5-0.5
							c0.3,0,0.5,0.2,0.5,0.5v1.9C211.4,259.9,211.2,260.1,210.9,260.1z M210.9,256.4c-0.3,0-0.5-0.2-0.5-0.5v-1.9
							c0-0.3,0.2-0.5,0.5-0.5c0.3,0,0.5,0.2,0.5,0.5v1.9C211.4,256.2,211.2,256.4,210.9,256.4z M210.9,252.7c-0.3,0-0.5-0.2-0.5-0.5
							v-1.9c0-0.3,0.2-0.5,0.5-0.5c0.3,0,0.5,0.2,0.5,0.5v1.9C211.4,252.5,211.2,252.7,210.9,252.7z M210.9,249
							c-0.3,0-0.5-0.2-0.5-0.5v-1.9c0-0.3,0.2-0.5,0.5-0.5c0.3,0,0.5,0.2,0.5,0.5v1.9C211.4,248.8,211.2,249,210.9,249z
							 M210.9,245.4c-0.3,0-0.5-0.2-0.5-0.5V243c0-0.3,0.2-0.5,0.5-0.5c0.3,0,0.5,0.2,0.5,0.5v1.9
							C211.4,245.1,211.2,245.4,210.9,245.4z M210.9,241.6c-0.3,0-0.5-0.2-0.5-0.5v-1.9c0-0.3,0.2-0.5,0.5-0.5
							c0.3,0,0.5,0.2,0.5,0.5v1.9C211.4,241.4,211.2,241.6,210.9,241.6z M210.9,237.9c-0.3,0-0.5-0.2-0.5-0.5v-1.9
							c0-0.3,0.2-0.5,0.5-0.5c0.3,0,0.5,0.2,0.5,0.5v1.9C211.4,237.7,211.2,237.9,210.9,237.9z M210.9,234.3c-0.3,0-0.5-0.2-0.5-0.5
							v-1.9c0-0.3,0.2-0.5,0.5-0.5c0.3,0,0.5,0.2,0.5,0.5v1.9C211.4,234,211.2,234.3,210.9,234.3z M210.9,230.6
							c-0.3,0-0.5-0.2-0.5-0.5v-1.9c0-0.3,0.2-0.5,0.5-0.5c0.3,0,0.5,0.2,0.5,0.5v1.9C211.4,230.3,211.2,230.6,210.9,230.6z"/>
					</g>
				</g>
				<g id="XMLID_17674_">
					<g id="XMLID_17924_">
						<path id="XMLID_18271_" class="st1" d="M210.9,285.1c-0.3,0-0.5-0.2-0.5-0.5v-0.9c0-0.3,0.2-0.5,0.5-0.5
							c0.3,0,0.5,0.2,0.5,0.5v0.9C211.4,284.9,211.2,285.1,210.9,285.1z"/>
					</g>
				</g>
			</g>
			<g id="XMLID_17552_">
				<g id="XMLID_17673_">
					<g id="XMLID_17923_">
						<path id="XMLID_18267_" class="st1" d="M258.9,168.8c-0.3,0-0.5-0.2-0.5-0.5v-0.9c0-0.3,0.2-0.5,0.5-0.5
							c0.3,0,0.5,0.2,0.5,0.5v0.9C259.4,168.6,259.1,168.8,258.9,168.8z"/>
					</g>
				</g>
				<g id="XMLID_17670_">
					<g id="XMLID_17818_">
						<path id="XMLID_18241_" class="st1" d="M258.9,255.5c-0.3,0-0.5-0.2-0.5-0.5v-1.9c0-0.3,0.2-0.5,0.5-0.5
							c0.3,0,0.5,0.2,0.5,0.5v1.9C259.4,255.3,259.1,255.5,258.9,255.5z M258.9,251.7c-0.3,0-0.5-0.2-0.5-0.5v-1.9
							c0-0.3,0.2-0.5,0.5-0.5c0.3,0,0.5,0.2,0.5,0.5v1.9C259.4,251.5,259.1,251.7,258.9,251.7z M258.9,248c-0.3,0-0.5-0.2-0.5-0.5
							v-1.9c0-0.3,0.2-0.5,0.5-0.5c0.3,0,0.5,0.2,0.5,0.5v1.9C259.4,247.8,259.1,248,258.9,248z M258.9,244.2
							c-0.3,0-0.5-0.2-0.5-0.5v-1.9c0-0.3,0.2-0.5,0.5-0.5c0.3,0,0.5,0.2,0.5,0.5v1.9C259.4,244,259.1,244.2,258.9,244.2z
							 M258.9,240.4c-0.3,0-0.5-0.2-0.5-0.5v-1.9c0-0.3,0.2-0.5,0.5-0.5c0.3,0,0.5,0.2,0.5,0.5v1.9
							C259.4,240.2,259.1,240.4,258.9,240.4z M258.9,236.6c-0.3,0-0.5-0.2-0.5-0.5v-1.9c0-0.3,0.2-0.5,0.5-0.5
							c0.3,0,0.5,0.2,0.5,0.5v1.9C259.4,236.4,259.1,236.6,258.9,236.6z M258.9,232.9c-0.3,0-0.5-0.2-0.5-0.5v-1.9
							c0-0.3,0.2-0.5,0.5-0.5c0.3,0,0.5,0.2,0.5,0.5v1.9C259.4,232.7,259.1,232.9,258.9,232.9z M258.9,229.1c-0.3,0-0.5-0.2-0.5-0.5
							v-1.9c0-0.3,0.2-0.5,0.5-0.5c0.3,0,0.5,0.2,0.5,0.5v1.9C259.4,228.9,259.1,229.1,258.9,229.1z M258.9,225.3
							c-0.3,0-0.5-0.2-0.5-0.5V223c0-0.3,0.2-0.5,0.5-0.5c0.3,0,0.5,0.2,0.5,0.5v1.9C259.4,225.1,259.1,225.3,258.9,225.3z
							 M258.9,221.6c-0.3,0-0.5-0.2-0.5-0.5v-1.9c0-0.3,0.2-0.5,0.5-0.5c0.3,0,0.5,0.2,0.5,0.5v1.9
							C259.4,221.4,259.1,221.6,258.9,221.6z M258.9,217.8c-0.3,0-0.5-0.2-0.5-0.5v-1.9c0-0.3,0.2-0.5,0.5-0.5
							c0.3,0,0.5,0.2,0.5,0.5v1.9C259.4,217.6,259.1,217.8,258.9,217.8z M258.9,214c-0.3,0-0.5-0.2-0.5-0.5v-1.9
							c0-0.3,0.2-0.5,0.5-0.5c0.3,0,0.5,0.2,0.5,0.5v1.9C259.4,213.8,259.1,214,258.9,214z M258.9,210.3c-0.3,0-0.5-0.2-0.5-0.5
							v-1.9c0-0.3,0.2-0.5,0.5-0.5c0.3,0,0.5,0.2,0.5,0.5v1.9C259.4,210.1,259.1,210.3,258.9,210.3z M258.9,206.5
							c-0.3,0-0.5-0.2-0.5-0.5v-1.9c0-0.3,0.2-0.5,0.5-0.5c0.3,0,0.5,0.2,0.5,0.5v1.9C259.4,206.3,259.1,206.5,258.9,206.5z
							 M258.9,202.7c-0.3,0-0.5-0.2-0.5-0.5v-1.9c0-0.3,0.2-0.5,0.5-0.5c0.3,0,0.5,0.2,0.5,0.5v1.9
							C259.4,202.5,259.1,202.7,258.9,202.7z M258.9,198.9c-0.3,0-0.5-0.2-0.5-0.5v-1.9c0-0.3,0.2-0.5,0.5-0.5
							c0.3,0,0.5,0.2,0.5,0.5v1.9C259.4,198.7,259.1,198.9,258.9,198.9z M258.9,195.2c-0.3,0-0.5-0.2-0.5-0.5v-1.9
							c0-0.3,0.2-0.5,0.5-0.5c0.3,0,0.5,0.2,0.5,0.5v1.9C259.4,195,259.1,195.2,258.9,195.2z M258.9,191.4c-0.3,0-0.5-0.2-0.5-0.5
							V189c0-0.3,0.2-0.5,0.5-0.5c0.3,0,0.5,0.2,0.5,0.5v1.9C259.4,191.2,259.1,191.4,258.9,191.4z M258.9,187.6
							c-0.3,0-0.5-0.2-0.5-0.5v-1.9c0-0.3,0.2-0.5,0.5-0.5c0.3,0,0.5,0.2,0.5,0.5v1.9C259.4,187.4,259.1,187.6,258.9,187.6z
							 M258.9,183.9c-0.3,0-0.5-0.2-0.5-0.5v-1.9c0-0.3,0.2-0.5,0.5-0.5c0.3,0,0.5,0.2,0.5,0.5v1.9
							C259.4,183.6,259.1,183.9,258.9,183.9z M258.9,180.1c-0.3,0-0.5-0.2-0.5-0.5v-1.9c0-0.3,0.2-0.5,0.5-0.5
							c0.3,0,0.5,0.2,0.5,0.5v1.9C259.4,179.9,259.1,180.1,258.9,180.1z M258.9,176.3c-0.3,0-0.5-0.2-0.5-0.5V174
							c0-0.3,0.2-0.5,0.5-0.5c0.3,0,0.5,0.2,0.5,0.5v1.9C259.4,176.1,259.1,176.3,258.9,176.3z M258.9,172.5c-0.3,0-0.5-0.2-0.5-0.5
							v-1.9c0-0.3,0.2-0.5,0.5-0.5c0.3,0,0.5,0.2,0.5,0.5v1.9C259.4,172.3,259.1,172.5,258.9,172.5z"/>
					</g>
				</g>
				<g id="XMLID_17667_">
					<g id="XMLID_17817_">
						<path id="XMLID_18238_" class="st1" d="M258.9,258.3c-0.3,0-0.5-0.2-0.5-0.5v-0.9c0-0.3,0.2-0.5,0.5-0.5
							c0.3,0,0.5,0.2,0.5,0.5v0.9C259.4,258.1,259.1,258.3,258.9,258.3z"/>
					</g>
				</g>
			</g>
			<g id="XMLID_17576_">
				<g id="XMLID_17666_">
					<g id="XMLID_17816_">
						<path id="XMLID_18234_" class="st1" d="M295.6,181.4c-0.3,0-0.5-0.2-0.5-0.5V180c0-0.3,0.2-0.5,0.5-0.5s0.5,0.2,0.5,0.5v0.9
							C296,181.2,295.8,181.4,295.6,181.4z"/>
					</g>
				</g>
				<g id="XMLID_17665_">
					<g id="XMLID_17695_">
						<path id="XMLID_18217_" class="st1" d="M295.6,234.5c-0.3,0-0.5-0.2-0.5-0.5v-1.9c0-0.3,0.2-0.5,0.5-0.5s0.5,0.2,0.5,0.5v1.9
							C296,234.3,295.8,234.5,295.6,234.5z M295.6,230.7c-0.3,0-0.5-0.2-0.5-0.5v-1.9c0-0.3,0.2-0.5,0.5-0.5s0.5,0.2,0.5,0.5v1.9
							C296,230.5,295.8,230.7,295.6,230.7z M295.6,226.9c-0.3,0-0.5-0.2-0.5-0.5v-1.9c0-0.3,0.2-0.5,0.5-0.5s0.5,0.2,0.5,0.5v1.9
							C296,226.7,295.8,226.9,295.6,226.9z M295.6,223.1c-0.3,0-0.5-0.2-0.5-0.5v-1.9c0-0.3,0.2-0.5,0.5-0.5s0.5,0.2,0.5,0.5v1.9
							C296,222.9,295.8,223.1,295.6,223.1z M295.6,219.3c-0.3,0-0.5-0.2-0.5-0.5V217c0-0.3,0.2-0.5,0.5-0.5s0.5,0.2,0.5,0.5v1.9
							C296,219.1,295.8,219.3,295.6,219.3z M295.6,215.5c-0.3,0-0.5-0.2-0.5-0.5v-1.9c0-0.3,0.2-0.5,0.5-0.5s0.5,0.2,0.5,0.5v1.9
							C296,215.3,295.8,215.5,295.6,215.5z M295.6,211.7c-0.3,0-0.5-0.2-0.5-0.5v-1.9c0-0.3,0.2-0.5,0.5-0.5s0.5,0.2,0.5,0.5v1.9
							C296,211.5,295.8,211.7,295.6,211.7z M295.6,207.9c-0.3,0-0.5-0.2-0.5-0.5v-1.9c0-0.3,0.2-0.5,0.5-0.5s0.5,0.2,0.5,0.5v1.9
							C296,207.7,295.8,207.9,295.6,207.9z M295.6,204.2c-0.3,0-0.5-0.2-0.5-0.5v-1.9c0-0.3,0.2-0.5,0.5-0.5s0.5,0.2,0.5,0.5v1.9
							C296,203.9,295.8,204.2,295.6,204.2z M295.6,200.4c-0.3,0-0.5-0.2-0.5-0.5V198c0-0.3,0.2-0.5,0.5-0.5s0.5,0.2,0.5,0.5v1.9
							C296,200.2,295.8,200.4,295.6,200.4z M295.6,196.6c-0.3,0-0.5-0.2-0.5-0.5v-1.9c0-0.3,0.2-0.5,0.5-0.5s0.5,0.2,0.5,0.5v1.9
							C296,196.4,295.8,196.6,295.6,196.6z M295.6,192.8c-0.3,0-0.5-0.2-0.5-0.5v-1.9c0-0.3,0.2-0.5,0.5-0.5s0.5,0.2,0.5,0.5v1.9
							C296,192.6,295.8,192.8,295.6,192.8z M295.6,189c-0.3,0-0.5-0.2-0.5-0.5v-1.9c0-0.3,0.2-0.5,0.5-0.5s0.5,0.2,0.5,0.5v1.9
							C296,188.8,295.8,189,295.6,189z M295.6,185.2c-0.3,0-0.5-0.2-0.5-0.5v-1.9c0-0.3,0.2-0.5,0.5-0.5s0.5,0.2,0.5,0.5v1.9
							C296,185,295.8,185.2,295.6,185.2z"/>
					</g>
				</g>
				<g id="XMLID_17664_">
					<g id="XMLID_17692_">
						<path id="XMLID_18214_" class="st1" d="M295.6,237.3c-0.3,0-0.5-0.2-0.5-0.5v-0.9c0-0.3,0.2-0.5,0.5-0.5s0.5,0.2,0.5,0.5v0.9
							C296,237.1,295.8,237.3,295.6,237.3z"/>
					</g>
				</g>
			</g>
			<g id="XMLID_17577_">
				<g id="XMLID_17918_">
					<g id="XMLID_17683_">
						<path id="XMLID_18210_" class="st1" d="M331.7,183.9c-0.3,0-0.5-0.2-0.5-0.5v-0.9c0-0.3,0.2-0.5,0.5-0.5s0.5,0.2,0.5,0.5v0.9
							C332.1,183.7,331.9,183.9,331.7,183.9z"/>
					</g>
				</g>
				<g id="XMLID_17917_">
					<g id="XMLID_17660_">
						<path id="XMLID_18199_" class="st1" d="M331.7,213.6c-0.3,0-0.5-0.2-0.5-0.5v-1.9c0-0.3,0.2-0.5,0.5-0.5s0.5,0.2,0.5,0.5v1.9
							C332.1,213.4,331.9,213.6,331.7,213.6z M331.7,209.9c-0.3,0-0.5-0.2-0.5-0.5v-1.9c0-0.3,0.2-0.5,0.5-0.5s0.5,0.2,0.5,0.5v1.9
							C332.1,209.7,331.9,209.9,331.7,209.9z M331.7,206.2c-0.3,0-0.5-0.2-0.5-0.5v-1.9c0-0.3,0.2-0.5,0.5-0.5s0.5,0.2,0.5,0.5v1.9
							C332.1,206,331.9,206.2,331.7,206.2z M331.7,202.5c-0.3,0-0.5-0.2-0.5-0.5v-1.9c0-0.3,0.2-0.5,0.5-0.5s0.5,0.2,0.5,0.5v1.9
							C332.1,202.3,331.9,202.5,331.7,202.5z M331.7,198.7c-0.3,0-0.5-0.2-0.5-0.5v-1.9c0-0.3,0.2-0.5,0.5-0.5s0.5,0.2,0.5,0.5v1.9
							C332.1,198.5,331.9,198.7,331.7,198.7z M331.7,195c-0.3,0-0.5-0.2-0.5-0.5v-1.9c0-0.3,0.2-0.5,0.5-0.5s0.5,0.2,0.5,0.5v1.9
							C332.1,194.8,331.9,195,331.7,195z M331.7,191.3c-0.3,0-0.5-0.2-0.5-0.5V189c0-0.3,0.2-0.5,0.5-0.5s0.5,0.2,0.5,0.5v1.9
							C332.1,191.1,331.9,191.3,331.7,191.3z M331.7,187.6c-0.3,0-0.5-0.2-0.5-0.5v-1.9c0-0.3,0.2-0.5,0.5-0.5s0.5,0.2,0.5,0.5v1.9
							C332.1,187.4,331.9,187.6,331.7,187.6z"/>
					</g>
				</g>
				<g id="XMLID_17916_">
					<g id="XMLID_17659_">
						<path id="XMLID_18196_" class="st1" d="M331.7,216.4c-0.3,0-0.5-0.2-0.5-0.5V215c0-0.3,0.2-0.5,0.5-0.5s0.5,0.2,0.5,0.5v0.9
							C332.1,216.2,331.9,216.4,331.7,216.4z"/>
					</g>
				</g>
			</g>
			<g id="XMLID_17795_">
				<g id="XMLID_17809_">
					<g id="XMLID_18191_">
						<path id="XMLID_18192_" class="st1" d="M303.1,151.3c0-0.9-0.6-1.3-1.4-0.8l-13.2,7.6c-0.8,0.5-1.4,1.6-1.4,2.5v10.7
							c0,0.9,0.6,1.3,1.4,0.8l4.9-2.8l2,3.6c0.1,0.2,0.5,0.2,0.5-0.1l2.2-6.3v0l3.5-2c0.8-0.5,1.4-1.6,1.4-2.5L303.1,151.3
							L303.1,151.3z"/>
					</g>
				</g>
				<g id="XMLID_17821_">
					<g id="XMLID_17822_">
						<g id="XMLID_18183_">
							<path id="XMLID_18184_" class="st11" d="M291.6,162.4c-0.3,0-0.5-0.1-0.7-0.3c-0.2-0.2-0.3-0.5-0.3-0.9
								c0-0.4,0.1-0.8,0.3-1.2s0.4-0.8,0.7-1.1c0.3-0.3,0.6-0.6,1-0.8c0.4-0.2,0.7-0.3,1-0.3s0.5,0.1,0.7,0.3s0.3,0.5,0.3,0.9
								c0,0.4-0.1,0.8-0.3,1.2c-0.2,0.4-0.4,0.8-0.7,1.1s-0.6,0.6-1,0.8C292.3,162.3,292,162.4,291.6,162.4z M291.3,167.8
								c0-0.1,0-0.1,0-0.2l5.7-11.6c0-0.1,0.1-0.2,0.1-0.3c0-0.1,0.1-0.1,0.2-0.2l1.2-0.7c0.1,0,0.1-0.1,0.1,0c0,0,0,0,0,0.1
								c0,0.1,0,0.1,0,0.2l-5.8,11.7c0,0.1-0.1,0.2-0.1,0.2s-0.1,0.1-0.2,0.1l-1.2,0.7C291.4,167.9,291.3,167.9,291.3,167.8z
								 M293.4,160.4c0.2-0.3,0.3-0.6,0.3-0.9c0-0.3-0.1-0.5-0.3-0.6c-0.2-0.1-0.4,0-0.7,0.1s-0.5,0.4-0.7,0.7s-0.3,0.6-0.3,0.9
								c0,0.3,0.1,0.5,0.3,0.6s0.4,0,0.7-0.1C292.9,161,293.2,160.7,293.4,160.4z M296.5,164.9c-0.3,0-0.5-0.1-0.7-0.3
								s-0.3-0.5-0.3-0.9c0-0.4,0.1-0.8,0.3-1.2c0.2-0.4,0.4-0.8,0.7-1.1s0.6-0.6,1-0.8c0.4-0.2,0.7-0.3,1-0.3s0.5,0.1,0.7,0.3
								s0.3,0.5,0.3,0.9s-0.1,0.8-0.3,1.2s-0.4,0.8-0.7,1.1s-0.6,0.6-1,0.8C297.2,164.8,296.9,164.9,296.5,164.9z M298.3,162.9
								c0.2-0.3,0.3-0.6,0.3-0.9c0-0.3-0.1-0.5-0.3-0.6c-0.2-0.1-0.4,0-0.7,0.1c-0.3,0.2-0.5,0.4-0.7,0.7c-0.2,0.3-0.3,0.6-0.3,0.9
								c0,0.3,0.1,0.5,0.3,0.6c0.2,0.1,0.4,0,0.7-0.1C297.8,163.5,298.1,163.2,298.3,162.9z"/>
						</g>
					</g>
				</g>
			</g>
			<g id="XMLID_17331_">
				<g id="XMLID_17342_">
					<g id="XMLID_18178_">
						<path id="XMLID_18179_" class="st1" d="M338.7,153.1c0-0.9-0.6-1.3-1.4-0.8l-13.2,7.6c-0.8,0.5-1.4,1.6-1.4,2.5V173
							c0,0.9,0.6,1.3,1.4,0.8l4.9-2.8l2,3.6c0.1,0.2,0.5,0.2,0.5-0.1l2.2-6.3v0l3.5-2c0.8-0.5,1.4-1.6,1.4-2.5L338.7,153.1
							L338.7,153.1z"/>
					</g>
				</g>
				<g id="XMLID_17332_">
					<g id="XMLID_17333_">
						<g id="XMLID_18170_">
							<path id="XMLID_18171_" class="st11" d="M327.2,164.3c-0.3,0-0.5-0.1-0.7-0.3c-0.2-0.2-0.3-0.5-0.3-0.9
								c0-0.4,0.1-0.8,0.3-1.2s0.4-0.8,0.7-1.1c0.3-0.3,0.6-0.6,1-0.8c0.4-0.2,0.7-0.3,1-0.3s0.5,0.1,0.7,0.3s0.3,0.5,0.3,0.9
								c0,0.4-0.1,0.8-0.3,1.2c-0.2,0.4-0.4,0.8-0.7,1.1s-0.6,0.6-1,0.8C327.8,164.1,327.5,164.3,327.2,164.3z M326.9,169.6
								c0-0.1,0-0.1,0-0.2l5.7-11.6c0-0.1,0.1-0.2,0.1-0.3c0-0.1,0.1-0.1,0.2-0.2l1.2-0.7c0.1,0,0.1-0.1,0.1,0c0,0,0,0,0,0.1
								c0,0.1,0,0.1,0,0.2l-5.8,11.7c0,0.1-0.1,0.2-0.1,0.2s-0.1,0.1-0.2,0.1l-1.2,0.7C327,169.8,326.9,169.8,326.9,169.6z
								 M328.9,162.3c0.2-0.3,0.3-0.6,0.3-0.9c0-0.3-0.1-0.5-0.3-0.6c-0.2-0.1-0.4,0-0.7,0.1s-0.5,0.4-0.7,0.7s-0.3,0.6-0.3,0.9
								c0,0.3,0.1,0.5,0.3,0.6s0.4,0,0.7-0.1C328.5,162.8,328.7,162.6,328.9,162.3z M332.1,166.7c-0.3,0-0.5-0.1-0.7-0.3
								s-0.3-0.5-0.3-0.9c0-0.4,0.1-0.8,0.3-1.2c0.2-0.4,0.4-0.8,0.7-1.1s0.6-0.6,1-0.8c0.4-0.2,0.7-0.3,1-0.3s0.5,0.1,0.7,0.3
								s0.3,0.5,0.3,0.9s-0.1,0.8-0.3,1.2s-0.4,0.8-0.7,1.1s-0.6,0.6-1,0.8C332.7,166.6,332.4,166.7,332.1,166.7z M333.8,164.8
								c0.2-0.3,0.3-0.6,0.3-0.9s-0.1-0.5-0.3-0.6c-0.2-0.1-0.4,0-0.7,0.1c-0.3,0.2-0.5,0.4-0.7,0.7c-0.2,0.3-0.3,0.6-0.3,0.9
								c0,0.3,0.1,0.5,0.3,0.6c0.2,0.1,0.4,0,0.7-0.1C333.4,165.3,333.6,165.1,333.8,164.8z"/>
						</g>
					</g>
				</g>
			</g>
			<g id="XMLID_17820_">
				<g id="XMLID_17837_">
					<g id="XMLID_18165_">
						<path id="XMLID_18166_" class="st1" d="M265.7,138.9c0-0.9-0.6-1.3-1.4-0.8l-13.2,7.6c-0.8,0.5-1.4,1.6-1.4,2.5v10.7
							c0,0.9,0.6,1.3,1.4,0.8l4.9-2.8l2,3.6c0.1,0.2,0.5,0.2,0.5-0.1l2.2-6.3v0l3.5-2c0.8-0.5,1.4-1.6,1.4-2.5L265.7,138.9
							L265.7,138.9z"/>
					</g>
				</g>
				<g id="XMLID_17830_">
					<g id="XMLID_17831_">
						<g id="XMLID_18157_">
							<path id="XMLID_18158_" class="st11" d="M254.3,150c-0.3,0-0.5-0.1-0.7-0.3c-0.2-0.2-0.3-0.5-0.3-0.9c0-0.4,0.1-0.8,0.3-1.2
								s0.4-0.8,0.7-1.1c0.3-0.3,0.6-0.6,1-0.8c0.4-0.2,0.7-0.3,1-0.3s0.5,0.1,0.7,0.3s0.3,0.5,0.3,0.9c0,0.4-0.1,0.8-0.3,1.2
								c-0.2,0.4-0.4,0.8-0.7,1.1c-0.3,0.3-0.6,0.6-1,0.8C254.9,149.9,254.6,150,254.3,150z M253.9,155.4c0-0.1,0-0.1,0.1-0.2
								l5.7-11.6c0-0.1,0.1-0.2,0.1-0.3c0-0.1,0.1-0.1,0.2-0.2l1.2-0.7c0.1,0,0.1-0.1,0.1,0c0,0,0,0,0,0.1c0,0.1,0,0.1,0,0.2
								l-5.8,11.7c-0.1,0.1-0.1,0.2-0.1,0.2c0,0.1-0.1,0.1-0.2,0.1l-1.2,0.7C254,155.6,253.9,155.5,253.9,155.4z M256,148
								c0.2-0.3,0.3-0.6,0.3-0.9c0-0.3-0.1-0.5-0.3-0.6c-0.2-0.1-0.4,0-0.7,0.1c-0.3,0.2-0.5,0.4-0.7,0.7s-0.3,0.6-0.3,0.9
								c0,0.3,0.1,0.5,0.3,0.6c0.2,0.1,0.4,0,0.7-0.1C255.5,148.6,255.8,148.3,256,148z M259.1,152.5c-0.3,0-0.5-0.1-0.7-0.3
								s-0.3-0.5-0.3-0.9c0-0.4,0.1-0.8,0.3-1.2c0.2-0.4,0.4-0.8,0.7-1.1s0.6-0.6,1-0.8c0.4-0.2,0.7-0.3,1-0.3s0.5,0.1,0.7,0.3
								s0.3,0.5,0.3,0.9s-0.1,0.8-0.3,1.2s-0.4,0.8-0.7,1.1s-0.6,0.6-1,0.8C259.8,152.4,259.5,152.5,259.1,152.5z M260.9,150.5
								c0.2-0.3,0.3-0.6,0.3-0.9s-0.1-0.5-0.3-0.6c-0.2-0.1-0.4,0-0.7,0.1c-0.3,0.2-0.5,0.4-0.7,0.7c-0.2,0.3-0.3,0.6-0.3,0.9
								c0,0.3,0.1,0.5,0.3,0.6c0.2,0.1,0.4,0,0.7-0.1C260.4,151.1,260.7,150.8,260.9,150.5z"/>
						</g>
					</g>
				</g>
			</g>
			<g id="XMLID_17838_">
				<g id="XMLID_17846_">
					<g id="XMLID_18152_">
						<path id="XMLID_18153_" class="st1" d="M217.9,195.6c0-0.9-0.6-1.3-1.4-0.8l-13.2,7.6c-0.8,0.5-1.4,1.6-1.4,2.5v10.7
							c0,0.9,0.6,1.3,1.4,0.8l4.9-2.8l2.1,3.6c0.1,0.2,0.5,0.2,0.6-0.1l2.2-6.3v0l3.5-2c0.8-0.5,1.4-1.6,1.4-2.5L217.9,195.6
							L217.9,195.6z"/>
					</g>
				</g>
				<g id="XMLID_17839_">
					<g id="XMLID_17840_">
						<g id="XMLID_18144_">
							<path id="XMLID_18145_" class="st11" d="M206.4,206.8c-0.3,0-0.5-0.1-0.7-0.3c-0.2-0.2-0.3-0.5-0.3-0.9
								c0-0.4,0.1-0.8,0.3-1.2s0.4-0.8,0.7-1.1c0.3-0.3,0.6-0.6,1-0.8c0.4-0.2,0.7-0.3,1-0.3s0.5,0.1,0.7,0.3
								c0.2,0.2,0.3,0.5,0.3,0.9c0,0.4-0.1,0.8-0.3,1.2c-0.2,0.4-0.4,0.8-0.7,1.1s-0.6,0.6-1,0.8
								C207.1,206.7,206.8,206.8,206.4,206.8z M206.1,212.2c0-0.1,0-0.1,0.1-0.2l5.7-11.6c0.1-0.1,0.1-0.2,0.1-0.3
								c0.1-0.1,0.1-0.1,0.2-0.2l1.2-0.7c0.1,0,0.1-0.1,0.1,0c0,0,0.1,0,0.1,0.1c0,0.1,0,0.1-0.1,0.2l-5.8,11.7
								c-0.1,0.1-0.1,0.2-0.1,0.2s-0.1,0.1-0.2,0.1l-1.2,0.7C206.2,212.3,206.1,212.3,206.1,212.2z M208.2,204.8
								c0.2-0.3,0.3-0.6,0.3-0.9c0-0.3-0.1-0.5-0.3-0.6c-0.2-0.1-0.4,0-0.7,0.1s-0.5,0.4-0.7,0.7s-0.3,0.6-0.3,0.9
								c0,0.3,0.1,0.5,0.3,0.6c0.2,0.1,0.4,0,0.7-0.1C207.7,205.3,208,205.1,208.2,204.8z M211.4,209.3c-0.3,0-0.5-0.1-0.7-0.3
								c-0.2-0.2-0.3-0.5-0.3-0.9s0.1-0.8,0.3-1.2c0.2-0.4,0.4-0.8,0.7-1.1s0.6-0.6,1-0.8c0.4-0.2,0.7-0.3,1-0.3s0.5,0.1,0.7,0.3
								c0.2,0.2,0.3,0.5,0.3,0.9s-0.1,0.8-0.3,1.2c-0.2,0.4-0.4,0.8-0.7,1.1s-0.6,0.6-1,0.8C212,209.2,211.6,209.3,211.4,209.3z
								 M213.1,207.3c0.2-0.3,0.3-0.6,0.3-0.9c0-0.3-0.1-0.5-0.3-0.6c-0.2-0.1-0.4,0-0.7,0.1c-0.3,0.2-0.5,0.4-0.7,0.7
								c-0.2,0.3-0.3,0.6-0.3,0.9c0,0.3,0.1,0.5,0.3,0.6c0.2,0.1,0.4,0,0.7-0.1C212.6,207.8,212.9,207.6,213.1,207.3z"/>
						</g>
					</g>
				</g>
			</g>
			<g id="XMLID_17797_">
				<g id="XMLID_18139_">
					<path id="XMLID_18140_" class="st1" d="M206.1,295.2l9.6-5.6c1.4-0.8,2.5-0.5,2.5,0.8s-1.1,2.9-2.5,3.7l-9.6,5.6
						c-1.4,0.8-2.5,0.5-2.5-0.8C203.5,297.6,204.7,296,206.1,295.2z"/>
				</g>
			</g>
			<g id="XMLID_17848_">
				<g id="XMLID_18136_">
					<path id="XMLID_18137_" class="st1" d="M254.1,267.5l9.6-5.6c1.4-0.8,2.5-0.5,2.5,0.8s-1.1,2.9-2.5,3.7l-9.6,5.6
						c-1.4,0.8-2.5,0.5-2.5-0.8C251.5,270,252.7,268.3,254.1,267.5z"/>
				</g>
			</g>
			<g id="XMLID_17849_">
				<g id="XMLID_18133_">
					<path id="XMLID_18134_" class="st1" d="M290.7,246.3l9.6-5.6c1.4-0.8,2.5-0.5,2.5,0.8c0,1.2-1.1,2.9-2.5,3.7l-9.6,5.6
						c-1.4,0.8-2.5,0.5-2.5-0.8C288.2,248.8,289.3,247.1,290.7,246.3z"/>
				</g>
			</g>
			<g id="XMLID_17646_">
				<g id="XMLID_18130_">
					<path id="XMLID_18131_" class="st1" d="M326.9,225.4l9.6-5.6c1.4-0.8,2.5-0.5,2.5,0.8c0,1.2-1.1,2.9-2.5,3.7l-9.6,5.6
						c-1.4,0.8-2.5,0.5-2.5-0.8C324.3,227.9,325.5,226.3,326.9,225.4z"/>
				</g>
			</g>
		</g>
		<g id="XMLID_17339_">
			<g id="XMLID_17726_">
				<g id="XMLID_17728_">
					<path id="XMLID_18127_" class="st4" d="M303.5,362.6l9.5,17.9c8.3-1.5,15.3-3.9,21.4-7.4l-22.9-5.1
						C309.1,369.3,306.4,362.1,303.5,362.6z"/>
				</g>
			</g>
			<g id="XMLID_17718_">
				<g id="XMLID_17725_">
					<path id="XMLID_18124_" class="st12" d="M284.1,352.1c4.6-2.6,10.8-3.7,16.8-3.1l5-29l-5-9l-26.1,3.4l-28,41l0.9,1.3l30.9,2.2
						C279,356.4,280.8,354,284.1,352.1z"/>
				</g>
				<g id="XMLID_17647_">
					<polygon id="XMLID_18122_" class="st12" points="305.9,300.3 305.9,295.1 300.8,313.5 300.8,318.6 					"/>
				</g>
				<g id="XMLID_17723_">
					<path id="XMLID_18120_" class="st13" d="M284.1,316.6c4.6-2.6,10.8-3.7,16.8-3.1l5-18.4c-28.2-2.6-54.6,8.5-59.1,24.8
						c-0.1,0.5-0.3,1.1-0.4,1.5l32.1,2C279,320.9,280.8,318.5,284.1,316.6z"/>
				</g>
				<g id="XMLID_17716_">
					<polygon id="XMLID_18118_" class="st14" points="278.5,344.3 278.5,323.4 246.4,321.5 246.4,342.4 					"/>
				</g>
			</g>
			<g id="XMLID_17583_">
				<g id="XMLID_17719_">
					<path id="XMLID_18115_" class="st1" d="M311.5,321.8c3.9,2.2,5.8,5.2,5.7,8.1l32.3,0.3c0.5-15-17.8-27.6-43.6-30l-5,18.4
						C304.7,319,308.5,320,311.5,321.8z"/>
				</g>
				<g id="XMLID_17714_">
					<polygon id="XMLID_18113_" class="st2" points="317.1,329.9 317.1,352.2 349.4,352.5 349.4,330.2 					"/>
				</g>
				<g id="XMLID_17713_">
					<path id="XMLID_18111_" class="st3" d="M317.2,329.9v22c0-2.9-1.9-5.7-5.7-7.9c-3-1.7-6.8,5.3-10.7,4.9v-30.3
						C309.7,319.4,317.3,323.8,317.2,329.9z"/>
				</g>
				<g id="XMLID_17649_">
					<rect id="XMLID_18109_" x="278.4" y="339.8" class="st1" width="38.8" height="26.1"/>
				</g>
				<g id="XMLID_17648_">
					<path id="XMLID_18001_" class="st5" d="M284.1,347.9c-7.6-4.4-7.6-11.5,0-15.8s19.8-4.4,27.4,0s7.6,11.5,0,15.8
						C303.9,352.2,291.6,352.2,284.1,347.9z"/>
				</g>
			</g>
			<g id="XMLID_17708_">
				<path id="XMLID_18103_" class="st11" d="M317.1,352.2c-0.1,2.8-2,13.6-5.7,15.7c0,0,0,0,0,0l22.9,5.1
					c10-5.8,14.9-12.4,15.1-20.6L317.1,352.2z"/>
			</g>
			<g id="XMLID_17582_">
				<g id="XMLID_17707_">
					<polygon id="XMLID_18101_" class="st11" points="349.4,335.1 349.4,352.5 334.3,373.1 334.3,355.7 					"/>
				</g>
				<g id="XMLID_17703_">
					<path id="XMLID_18099_" class="st15" d="M317.1,334.8c-0.1,2.8-2,5.6-5.7,7.7c0,0,0,0,0,0l22.9,13.2
						c10-5.8,14.9-12.4,15.1-20.6L317.1,334.8z"/>
				</g>
				<g id="XMLID_17702_">
					<polygon id="XMLID_18097_" class="st16" points="334.3,355.7 334.3,373.1 311.5,359.9 311.5,342.5 					"/>
				</g>
			</g>
			<g id="XMLID_17553_">
				<g id="XMLID_17700_">
					<polygon id="XMLID_18094_" class="st4" points="334.3,361.2 312.9,368.6 312.9,380.5 334.3,373.1 					"/>
				</g>
				<g id="XMLID_17693_">
					<path id="XMLID_18092_" class="st6" d="M303.5,350.8l9.5,17.9c8.3-1.5,15.3-3.9,21.4-7.4L311.5,348
						C309.1,349.3,306.4,350.2,303.5,350.8z"/>
				</g>
				<g id="XMLID_17690_">
					<polygon id="XMLID_18090_" class="st4" points="303.5,350.8 303.5,356.2 312.9,380.5 312.9,368.6 					"/>
				</g>
			</g>
			<g id="XMLID_17685_">
				<g id="XMLID_17688_">
					<path id="XMLID_18087_" class="st17" d="M288.6,366c-4.3-2.5-10.7-3.9-10.1-7.1l-32.4-15.5c0,0,0,7.7,0,8.8
						c0.1,15,19.8,27.9,46.3,29.5c7.3,0.4,13.5,0.1,20.5-1.1v-8.7C306.3,372.9,293.9,369,288.6,366z"/>
				</g>
				<g id="XMLID_17687_">
					<path id="XMLID_18085_" class="st18" d="M284.1,351.1c-4.3-2.5-6.1-5.8-5.6-9l-32.1-2c-3,16.4,17.6,31,46,32.8
						c7.3,0.4,13.5,0.1,20.5-1.1l-9.5-17.9C296.8,355.1,289.3,354.2,284.1,351.1z"/>
				</g>
			</g>
		</g>
		<g id="XMLID_17740_">
			<g id="XMLID_17777_" class="st19">
				<path id="XMLID_18076_" class="st13" d="M424.6,314.8c-12.6,6-33,6-45.6,0s-12.6-15.7,0-21.7s33-6,45.6,0
					C437.2,299,437.2,308.8,424.6,314.8z"/>
			</g>
			<g id="XMLID_17742_">
				<g id="XMLID_799_">
					<path id="XMLID_18065_" class="st20" d="M394,170.7c-2.5-0.2-5.9-0.2-9.3,5.4c-3.4,5.5-12.6,20.8-12.6,20.8l6,4.1l10.5-14.8
						c0,0,1-11.8,2.9-13.4C393.5,171,394,170.7,394,170.7z"/>
				</g>
				<g id="XMLID_17772_">
					<g id="XMLID_17774_">
						
							<rect id="XMLID_18063_" x="397.9" y="282.9" transform="matrix(0.9514 -0.308 0.308 0.9514 -68.9842 137.4173)" class="st21" width="5.9" height="8.6"/>
					</g>
					<g id="XMLID_17743_">
						<path id="XMLID_18061_" class="st16" d="M398.2,288.7c0,0.6,0,1-0.5,1.9c-0.5,1.1-2,2.9-3.2,4.1c-1.7,1.8-4.2,4-6,5.5
							c-1,0.9-1,2.2,0.4,2.7s4.6,0.7,7.9-1.1c1.8-1,4.4-5.4,5.9-6.1c1.7-0.8,2.7-1.2,3.3-2c0.9-1.2,1.1-2.1,0.4-3.5
							c-0.8-1.5-2-3.8-2.5-3.6l0.2,0.5c-0.4,1.2-3.7,2.7-5.5,2.3L398.2,288.7z"/>
					</g>
					<g id="XMLID_17799_">
						<path id="XMLID_18059_" class="st21" d="M403.9,287.2c-1.6-0.5-2.1,0.3-3.8,0l-1.9,1.5c0,0.6,0,1-0.5,1.9
							c-0.5,1.1-2,2.9-3.2,4.1c-0.8,0.9-1.8,1.8-2.9,2.8l0,0c-0.8,1.3,2,1.7,3.5,1.2c1.6-0.5,3-1.7,4.1-3.2c1.1-1.5,4.1-4.9,4.6-6
							C404.3,288.4,404.1,287.7,403.9,287.2z"/>
					</g>
				</g>
				<g id="XMLID_17776_">
					<path id="XMLID_18056_" class="st21" d="M422.9,204.4c-0.8-6-2.7-13-5.1-23.8c-0.9-3.9-2-7.4-4.8-8.5l0,0c0,0-7.6,3.1-7.6,8.8
						s6.2,8.5,6.2,8.5l3.5,12.1l5.6,6.8C423.2,207.6,423,205.2,422.9,204.4z"/>
				</g>
				<g id="XMLID_17775_">
					<rect id="XMLID_18054_" x="405.2" y="295.6" class="st21" width="5.8" height="8.4"/>
				</g>
				<g id="XMLID_17773_">
					<path id="XMLID_18052_" class="st13" d="M415.3,210.3c2.3,9.8,0.1,22.9-0.7,31.1c-0.8,8-1.7,17.3-1.7,17.3s2.5,8.5,2.3,15
						c-0.1,6.9-4.2,23.6-4.2,23.6s-2.6,1.9-5.9,0c0,0-1-14-2-21.9c-1-8.3-1.3-14.3-2.2-19.2c-1.1-6-2.9-31.6-2.9-31.6l-3.1,25.3
						c0,0,3,4.8,4.3,9.7c1.3,4.9,4,24.4,4,24.4s-2.5,2.4-6.2,2.5c0,0-12.3-29.3-14-32.2c-1.8-3.1-2.1-37.2,0.8-45.7L415.3,210.3z"/>
				</g>
				<g id="XMLID_17771_">
					<path id="XMLID_18050_" class="st18" d="M404.7,170.8c0,0,7.3,0.9,8.3,1.4c-7.6,5.4-1.5,17.3-1.5,17.3l-3.7,10.2l7.4,10.6
						c-2.1,2.5-15.7,11-30.2,1.6c0,0,0.5-8.5,1.7-14.7c-2.1-10-2.3-13.2-1.7-15.5c1.7-6.6,5.6-10.8,10.1-11.1L404.7,170.8z"/>
				</g>
				<g id="XMLID_17755_">
					<polygon id="XMLID_18048_" class="st6" points="367.9,188.7 392.7,195.2 400,226 376.4,219.2 					"/>
				</g>
				<g id="XMLID_17754_">
					<path id="XMLID_18046_" class="st4" d="M378.7,209.1c-0.2,0.6-1.6,2.4-4.5,2.2l-0.4-1.3L378.7,209.1z"/>
				</g>
				<g id="XMLID_17753_">
					<path id="XMLID_18044_" class="st4" d="M384.2,210c0.1,0.8,1.8,2.3,4.6,3.3c3.2,1.1,8.2,0.5,8.2,0.5l-0.5-1.5L384.2,210z"/>
				</g>
				<g id="XMLID_17752_">
					<path id="XMLID_18042_" class="st4" d="M375.1,193.1c0,0-0.1-0.4-0.2-0.9c-0.1-0.5,1.3-0.6,3.3-0.1l3.6,0.9
						c1.9,0.5,3.5,1.3,3.7,1.8l0.2,0.9L375.1,193.1z"/>
				</g>
				<g id="XMLID_17751_">
					<path id="XMLID_18040_" class="st13" d="M373.4,189.6c-0.1-0.3,0.5-0.4,1.3-0.2l1.5,0.4c0,0-0.4-2.1,2.8-1.3s3.9,3,3.9,3
						s0.7,0.2,1.5,0.4s1.6,0.7,1.7,1l0.2,0.6l-12.8-3.4C373.5,190.2,373.5,189.9,373.4,189.6z"/>
				</g>
				<g id="XMLID_17750_">
					<path id="XMLID_18038_" class="st13" d="M375.2,190.6c1.2,0.3,1.7,0.4,1.8,1.2c0.2,0.9,0.3,1.6,0.3,1.6l5.6,1.5
						c0,0-0.3-1.2-0.4-1.6c-0.1-0.4,0.1-0.7,1-0.5l0.1-0.4l-8.9-2.3L375.2,190.6z"/>
				</g>
				<g id="XMLID_17749_">
					<path id="XMLID_18036_" class="st13" d="M375,193.2c0,0-0.1-0.4-0.2-0.9c-0.1-0.5,1.3-0.5,3.3-0.1l3.6,0.9
						c1.9,0.5,3.5,1.3,3.7,1.8l0.2,0.9L375,193.2z"/>
				</g>
				<g id="XMLID_17746_">
					<path id="XMLID_18034_" class="st21" d="M420.6,208.4l-5.6-6.8c0,0-12.6,5.3-14.5,5.4c-2,0.2-3.5-1.8-4.3-3.7s-2.3-1.7-2.3-1.7
						s0.6,2.4,0.8,3.2c0.2,0.8-4.4,1.4-7,0.5c-2.6-0.9-6.4,0.4-4.1,4s6.9,4,10.1,4c0.9,0,2.4-0.1,4-0.3c1-0.1,2-0.2,3.1-0.3
						C407.4,212.3,417.7,209.3,420.6,208.4z"/>
				</g>
				<g id="XMLID_17745_">
					<path id="XMLID_18031_" class="st21" d="M370.4,197.7c0,0,0.9,3.2,1.1,3.9c0.2,0.8,3.1,2.1,4.9,2.6s3.8,1.1,3,3.6
						c-0.8,2.4-3.8,2.9-5.3,2.8c-1.5-0.1-3.6-1.5-4.4-3.9c-1-3-0.5-6.2-0.9-8C368.3,197.1,369.5,196.6,370.4,197.7z"/>
				</g>
				<g id="XMLID_17744_">
					<path id="XMLID_18029_" class="st16" d="M405.2,301.1v-0.8c-0.2,1.3-1.8,5.1-4.1,7.2c-1.8,1.6-4.3,3.6-4.9,5.4
						c-0.6,1.9,2.9,2.7,5.3,2.4c2.8-0.3,4.9-1.9,5.9-3.1c1.5-1.7,1.5-2.9,2.2-3.8c0.7-0.9,2.3-2,2.7-3.1c0.2-0.6,0-1.9-0.3-3
						c-0.3-1-0.6-2.1-0.9-2c0,0.1,0,0.6,0,0.6c-0.4,0.5-1.6,0.9-2.9,1C407.2,301.9,405.2,301.8,405.2,301.1z"/>
				</g>
				<g id="XMLID_17796_">
					<path id="XMLID_18027_" class="st21" d="M410.9,300.9c-0.4,0.5-0.6-0.7-1.9-0.6c-0.8,0-2.3,0.6-2.3,0l-1.6,0
						c-0.2,1.3-1.8,5.1-4.1,7.2c-0.4,0.4-0.9,0.8-1.4,1.2c-1,1.1-0.7,2,1.6,2.2c2.3,0.2,4.3-1.2,6-3.3
						C409,305.5,410.9,300.9,410.9,300.9z"/>
				</g>
				<g id="XMLID_17899_">
					<path id="XMLID_18024_" class="st12" d="M398.4,165.9h1.4c7.3,0,13.2-5.9,13.2-13.2v-1.3c0-6.1-5-11.1-11.1-11.1h-5.4
						c-6.1,0-11.1,5-11.1,11.1v1.3C385.3,160,391.2,165.9,398.4,165.9z"/>
				</g>
				<g id="XMLID_17897_">
					<path id="XMLID_18022_" class="st21" d="M389.8,145.9c-1.5,0.9-3.3,4.5-3.1,12.2c0.1,6.5,2.3,8.1,3.3,8.6
						c1.1,0.5,3.1,0.2,5.1-0.1v3.9c0,0-2.8,3.2-2.6,5c0.2,1.8,4,2.2,6.5,0.5s4.7-5.2,4.7-5.2l0-9c0,0,1.2,1.1,3.2-0.6
						c1.6-1.4,2.2-3.9,0.9-5.1c-1.3-1.3-3.6-0.9-4.5,0.9c0,0-3.2,0.1-7.4-2.2C391.8,152.4,390.1,148.4,389.8,145.9z"/>
				</g>
				<g id="XMLID_17896_">
					<path id="XMLID_18019_" class="st12" d="M394,156.5c0,0.5,0.3,0.9,0.8,0.9c0.5,0,0.8-0.3,0.9-0.8s-0.3-0.9-0.8-0.9
						C394.5,155.7,394.1,156,394,156.5z"/>
				</g>
				<g id="XMLID_17895_">
					<path id="XMLID_18016_" class="st20" d="M393.8,162l-1.9,0.6c0.2,0.5,0.7,0.9,1.2,0.7C393.7,163.1,394,162.6,393.8,162z"/>
				</g>
				<g id="XMLID_17894_">
					<path id="XMLID_18014_" class="st12" d="M387.3,154l1.7-1.1c-0.3-0.5-0.9-0.6-1.4-0.3C387.1,152.9,387,153.5,387.3,154z"/>
				</g>
				<g id="XMLID_17893_">
					<path id="XMLID_18012_" class="st12" d="M387.7,155.9c0,0.5,0.3,0.9,0.8,0.9c0.5,0,0.8-0.3,0.9-0.8s-0.3-0.9-0.8-0.9
						C388.1,155.1,387.7,155.4,387.7,155.9z"/>
				</g>
				<g id="XMLID_17892_">
					<polygon id="XMLID_18010_" class="st20" points="391.6,155.4 391.4,160.4 388.8,159.6 					"/>
				</g>
				<g id="XMLID_17878_">
					<path id="XMLID_18007_" class="st20" d="M395.2,166.6c2.1-0.3,6.4-1.5,7.1-3.2c0,0-0.2,1.1-1.5,2.2c-1.3,1.1-5.6,2.4-5.6,2.4
						L395.2,166.6L395.2,166.6z"/>
				</g>
				<g id="XMLID_17757_">
					<polygon id="XMLID_18005_" class="st17" points="410,193.6 404.3,201.4 407.9,199.6 					"/>
				</g>
			</g>
		</g>
	</g>
</g>
<g id="Designed_by_Freepik">
</g>
</svg>
